<svg xmlns="http://www.w3.org/2000/svg" viewBox="0 0 1440 320">
  <path fill="#d8f3dc" fill-opacity="1" d="M0,0L34.3,26.7C68.6,53,137,107,206,106.7C274.3,107,343,53,411,74.7C480,96,549,192,617,202.7C685.7,213,754,139,823,122.7C891.4,107,960,149,1029,144C1097.1,139,1166,85,1234,74.7C1302.9,64,1371,96,1406,112L1440,128L1440,320L1405.7,320C1371.4,320,1303,320,1234,320C1165.7,320,1097,320,1029,320C960,320,891,320,823,320C754.3,320,686,320,617,320C548.6,320,480,320,411,320C342.9,320,274,320,206,320C137.1,320,69,320,34,320L0,320Z">

  </path>
</svg>
