  <svg xmlns="http://www.w3.org/2000/svg" viewBox="0 0 1440 320"><path fill="#f4fff5" fill-opacity="1" d="M0,224L21.8,229.3C43.6,235,87,245,131,218.7C174.5,192,218,128,262,122.7C305.5,117,349,171,393,176C436.4,181,480,139,524,133.3C567.3,128,611,160,655,160C698.2,160,742,128,785,122.7C829.1,117,873,139,916,160C960,181,1004,203,1047,224C1090.9,245,1135,267,1178,266.7C1221.8,267,1265,245,1309,224C1352.7,203,1396,181,1418,170.7L1440,160L1440,0L1418.2,0C1396.4,0,1353,0,1309,0C1265.5,0,1222,0,1178,0C1134.5,0,1091,0,1047,0C1003.6,0,960,0,916,0C872.7,0,829,0,785,0C741.8,0,698,0,655,0C610.9,0,567,0,524,0C480,0,436,0,393,0C349.1,0,305,0,262,0C218.2,0,175,0,131,0C87.3,0,44,0,22,0L0,0Z"></path></svg>
